<?xml version="1.0" encoding="iso-8859-1"?>
<!-- Generator: Adobe Illustrator 17.1.0, SVG Export Plug-In . SVG Version: 6.00 Build 0)  -->
<!DOCTYPE svg PUBLIC "-//W3C//DTD SVG 1.1//EN" "http://www.w3.org/Graphics/SVG/1.1/DTD/svg11.dtd">
<svg version="1.1" id="Capa_1" xmlns="http://www.w3.org/2000/svg" xmlns:xlink="http://www.w3.org/1999/xlink" x="0px" y="0px"
	 viewBox="0 0 298 298" style="enable-background:new 0 0 298 298;" xml:space="preserve">
<g>
	<path d="M117.5,0h-101c-8.822,0-16,7.178-16,16v101c0,8.822,7.178,16,16,16h101c8.822,0,16-7.178,16-16V16
		C133.5,7.178,126.322,0,117.5,0z"/>
	<path d="M281.5,0h-101c-8.822,0-16,7.178-16,16v101c0,8.822,7.178,16,16,16h101c8.822,0,16-7.178,16-16V16
		C297.5,7.178,290.322,0,281.5,0z"/>
	<path d="M117.5,165h-101c-8.822,0-16,7.178-16,16v101c0,8.822,7.178,16,16,16h101c8.822,0,16-7.178,16-16V181
		C133.5,172.178,126.322,165,117.5,165z"/>
	<path d="M281.5,165h-101c-8.822,0-16,7.178-16,16v101c0,8.822,7.178,16,16,16h101c8.822,0,16-7.178,16-16V181
		C297.5,172.178,290.322,165,281.5,165z"/>
</g>
<g>
</g>
<g>
</g>
<g>
</g>
<g>
</g>
<g>
</g>
<g>
</g>
<g>
</g>
<g>
</g>
<g>
</g>
<g>
</g>
<g>
</g>
<g>
</g>
<g>
</g>
<g>
</g>
<g>
</g>
</svg>
